<?xml version="1.0" encoding="UTF-8"?>
<svg id="Layer_2" data-name="Layer 2" xmlns="http://www.w3.org/2000/svg" viewBox="0 0 2322.42 515.07">
  <defs>
    <style>
      .cls-1, .cls-2 {
        fill: #fff;
      }

      .cls-3, .cls-2, .cls-4 {
        fill-rule: evenodd;
      }

      .cls-3, .cls-5 {
        fill: #21346e;
      }

      .cls-4, .cls-6 {
        fill: #f26722;
      }
    </style>
  </defs>
  <g id="Layer_1-2" data-name="Layer 1">
    <g>
      <g>
        <path class="cls-2" d="M1271,330.66h-12.86c3.01-5.47,4.68-11.69,4.68-18.14V147.58s0,0,0-.01,0,0,0-.01c0-13.44-7.17-25.86-18.81-32.57l-47.6-27.47-95.24-55-47.61-27.48c-4.2-2.42-8.76-3.96-13.41-4.63-.18-.03-.35-.06-.53-.09-.74-.1-1.49-.17-2.24-.22-.06,0-.12-.01-.18-.02-.81-.05-1.62-.08-2.43-.08-2.41,0-4.82,.23-7.2,.7-.02,0-.05,0-.07,.01-.4,.08-.8,.18-1.2,.28-.4,.09-.79,.17-1.19,.27-.05,.01-.1,.03-.15,.04-3.11,.84-6.14,2.08-9,3.74,0,0-.01,0-.02,.01l-47.59,27.48-47.61,27.48c-.33,.19-.66,.39-.98,.59l-46.64,26.92-47.6,27.49s-.01,0-.02,0c-8,4.62-13.89,11.93-16.78,20.42-.04,.11-.07,.23-.1,.34-.22,.66-.43,1.33-.61,2-.02,.09-.04,.18-.06,.27-.18,.7-.36,1.41-.5,2.13-.04,.18-.06,.36-.09,.53-.12,.63-.23,1.26-.32,1.9-.03,.24-.04,.48-.07,.72-.07,.58-.14,1.16-.17,1.75-.02,.32-.02,.65-.03,.98-.02,.51-.05,1.01-.05,1.52v47.08h-21.69v136h21.69v36.83c0,13.44,7.17,25.86,18.81,32.57l47.6,27.47,95.24,55,47.19,27.23c.14,.09,.28,.18,.42,.26,5.82,3.36,12.31,5.04,18.8,5.04s12.99-1.68,18.81-5.04l47.61-27.5c11.63-6.72,18.8-19.13,18.8-32.57v-33.28l10-5.77,28.81,16.64c5.82,3.36,12.31,5.04,18.81,5.04s12.99-1.68,18.81-5.04l47.61-27.5c11.63-6.72,18.8-19.13,18.8-32.57,0-3.72-.56-7.36-1.6-10.83h9.79v-26Z"/>
        <g>
          <polygon class="cls-3" points="939.53 147.56 939.53 147.58 987.14 175.07 1034.74 202.55 1034.76 202.55 1034.76 257.52 987.14 230.03 939.53 202.55 891.92 175.05 844.3 147.58 891.92 120.08 939.53 92.6 939.53 92.58 987.14 65.11 1034.76 37.61 1034.76 92.58 1034.74 92.58 987.14 120.08 939.53 147.56"/>
          <polygon class="cls-4" points="939.53 257.54 939.53 257.52 939.51 257.52 891.92 230.05 891.92 340.01 939.51 367.49 939.53 367.49 987.14 394.99 1034.76 422.46 1034.76 477.44 987.14 449.96 939.53 422.46 891.92 394.97 844.3 367.49 844.3 147.58 891.92 175.05 939.53 202.55 987.14 230.03 1034.76 257.52 1034.76 312.52 987.14 285.02 939.53 257.54"/>
          <path class="cls-3" d="M1177.6,175.07l-47.61,27.48-47.61,27.5-47.61,27.48v219.93l47.61-27.5v-54.99l47.61-27.48,47.61,27.5,47.61-27.5-47.61-27.5,47.61-27.48V147.58l-47.61,27.5Zm0,109.95l-47.61,27.5-47.61,27.5v-54.99l95.23-54.99v54.99Z"/>
          <polygon class="cls-4" points="1225.21 147.56 1225.21 147.58 1177.6 175.07 1129.98 202.55 1082.37 230.05 1034.76 257.52 1034.76 202.55 1082.37 175.05 1129.98 147.58 1082.37 120.08 1034.76 92.6 1034.76 37.61 1082.37 65.09 1177.6 120.08 1225.21 147.56"/>
        </g>
      </g>
      <g>
        <path class="cls-1" d="M2292.26,109.96h-45.12c-16.66,0-30.16,13.5-30.16,30.16v63.2h-37.27v-63.47c0-16.66-13.5-30.16-30.16-30.16h-44.8c-11.42,0-21.35,6.35-26.47,15.7-5.48-6.09-13.4-9.93-22.23-9.99l-5.49-.04c-.06,0-3.75,0-9.66,0-18.77,0-65.23,.02-91.28,.18-7.2,.05-14.86,1.61-22.13,4.51-16.13,6.44-28.53,16.66-36.79,29.97-3.25-5.69-7.22-10.89-11.92-15.51-14.2-13.99-33.66-21.47-56.28-21.65-16.67-.13-31.99-.19-46.83-.19s-30.39,.07-44.56,.21c-20.34,.2-38.06,6.45-51.68,18.13-3.71-12.45-15.24-21.53-28.9-21.53-11.15,0-22.43-.05-33.33-.1-25.61-.12-52.1-.24-78.19,.31-21.39,.44-40.69,10.28-54.09,25.54-13.1-13.5-30.61-21.24-49.49-21.83-17.46-.54-35.35-.82-53.17-.82s-35.31,.26-53.08,.79c-38.43,1.13-70.07,32.82-70.54,70.65-.61,49.33-1.02,99.45-1.42,147.92-.1,11.65-.19,23.29-.29,34.94-.03,3.65,.35,6.76,.63,9.03,.08,.65,.16,1.26,.2,1.71,1.48,15.48,14.48,27.3,30.02,27.3h46.52c16.66,0,30.16-13.5,30.16-30.16v-60.84l38.09,74.97c5.09,10.02,15.33,16.38,26.56,16.5,1.24,.01,30.5,.33,45.49,.33,9.88,0,19.09-4.84,24.71-12.88,12.42,8.35,27.06,12.87,42.38,12.9,13.44,.03,26.97,.03,40.48,.03,19.57,0,39.08-.02,58.22-.04,3.17,0,6.09-.17,8.67-.31,.97-.05,1.93-.11,2.9-.15,5.3-.24,10.23-1.84,14.46-4.45,4.53,2.71,9.82,4.28,15.48,4.28h46.47c16.66,0,30.16-13.5,30.16-30.16v-30.45h36.71v30.54c0,16.66,13.5,30.16,30.16,30.16h46.81c13.77,0,25.38-9.24,28.99-21.85,13.54,13.49,32.21,21.81,52.21,21.81,10.42,0,20.84,0,31.26,0h71.39c10.04,0,18.93-4.91,24.41-12.46,5.49,7.45,14.33,12.29,24.29,12.29h45.29c16.66,0,30.16-13.5,30.16-30.16v-63.53h36.74v63.61c0,16.66,13.5,30.16,30.16,30.16h45.16c16.66,0,30.16-13.5,30.16-30.16V140.12c0-16.66-13.5-30.16-30.16-30.16Z"/>
        <path class="cls-5" d="M2056.05,330.93v44.06c-3.9,0-7.35,0-10.8,0-30.62,0-61.24,0-91.86,0-20.67,0-39.42-15.48-42.92-35.72-.88-5.06-1.46-10.23-1.47-15.36-.11-42.87-.16-85.73-.03-128.6,.07-21.82,8.43-38.74,29.71-47.25,3.48-1.39,7.41-2.34,11.13-2.36,33.52-.21,100.55-.18,100.55-.18l5.49,.04s-.08,28.69-.08,43.83c-4.87,0-9.6,0-14.34,0-26.11,0-52.21,.09-78.32-.06-5.62-.03-9.13,.9-9.1,7.79,.19,41.9,.22,83.8,0,125.7-.04,7.73,4.48,8.08,10.01,8.08,27.4,0,82.19,.02,82.19,.02h9.84Z"/>
        <path class="cls-5" d="M1386.72,291.17c-2.84-5.98-6.1-8.82-13.11-8.49-12.82,.61-25.69,.17-39.32,.17v91.91h-46.52c-.25-2.67-.71-5.14-.69-7.61,.52-60.92,.96-121.84,1.71-182.75,.26-21.16,18.55-40.2,41.26-40.87,34.79-1.02,69.65-1.05,104.43,.03,23.56,.73,40.99,20.18,41.58,43.9,.41,16.43,.37,32.89,0,49.33-.49,22.3-13.48,38.14-35.19,43.72-3.4,.87-6.79,1.79-11.1,2.93,15.04,30.92,29.61,60.89,44.8,92.12-15,0-45.16-.33-45.16-.33m-95.59-139.04h96.02v-47.88h-96.02v47.88Z"/>
        <path class="cls-5" d="M2104.75,139.85h44.8v93.63h97.59v-93.36h45.12v234.78h-45.16v-93.77h-97.06v93.69h-45.29V139.85Z"/>
        <path class="cls-5" d="M1542.76,280.31v49.69h107.84v45.14c-3.43,.15-6.84,.43-10.25,.44-32.87,.03-65.74,.07-98.61,0-25.12-.05-45.65-20.09-45.75-45.11-.18-48.34-.22-96.67,.01-145.01,.11-24.16,19.59-45.11,43.63-45.61,36.7-.76,73.43-.2,110.9-.2v46.03h-107.5v48.42h68.69l-28.28,46.05"/>
        <path class="cls-5" d="M1872.19,363.99c-.31-24.78-.76-49.57-.92-74.35-.2-32.86,.11-65.72-.33-98.58-.39-29.66-18.91-47.79-48.68-48.03-30.28-.24-60.57-.28-90.85,.02-29.68,.3-47.66,19.03-47.91,48.7-.4,47.65-1.11,95.3-1.61,142.95-.14,13.4-.02,26.8-.02,40.24h46.47v-60.62h97.03v60.7h46.81c0-4.08,.04-7.56,0-11.04Zm-47.29-96.84h-96.86v-79.52h96.86v79.52Z"/>
      </g>
      <g>
        <path class="cls-1" d="M805.02,313.29v-110.98c3.15-4.77,5-10.48,5-16.62v-46.03c0-16.66-13.5-30.16-30.16-30.16-11.15,0-22.43-.05-33.33-.1-25.61-.12-52.1-.24-78.19,.31-26.67,.55-50.11,15.71-62.89,37.8-2.8-4.03-6.04-7.85-9.66-11.37-14.08-13.67-32.18-21.29-49.71-20.89-20.21,.45-61.46,.11-61.87,.11-.16,0-.33,0-.49,0l-6.4,.05c-4.78,.04-9.29,1.19-13.29,3.2-4.39-2-9.82-3.4-16.47-3.4-.33,0-.68,0-1.02,.01-3.87,.08-8.05,.12-13.55,.12-2.37,0-4.73,0-7.1-.01-2.42,0-4.84-.01-7.26-.01-5.14,0-11.91,.03-18.76,.23-12.81,.38-25.67,7.44-32.75,17.97-2.31,3.44-5.13,8.04-7.91,12.74-4.24-4.28-8.87-8.21-13.87-11.75-18.04-12.76-39.65-19.5-62.49-19.5-.9,0-1.82,.01-2.73,.03-25.82,.61-52.72,13.07-71.98,33.34-.28,.3-.56,.6-.84,.9,0-2.23,0-3.58,0-3.64,.04-16.61-13.35-30.13-29.96-30.24l-5.49-.04c-.06,0-3.75,0-9.66,0-18.77,0-65.23,.02-91.28,.18-7.2,.05-14.86,1.61-22.13,4.51C17.48,132.56,.19,159.25,.08,195.22c-.12,37.86-.11,78.78,.03,128.77,.02,6.41,.64,13.09,1.92,20.43,6,34.62,37.23,60.73,72.65,60.73,10.42,0,20.84,0,31.26,0h71.39c16.66,0,30.16-13.5,30.16-30.16v-3.22c4.22,4.53,8.87,8.73,13.91,12.51,18.51,13.89,40.47,21.23,63.51,21.23,1.05,0,2.12-.02,3.17-.05,27.15-.81,53.75-13,72.98-33.45,6.4-6.81,11.76-14.26,16-22.23l.03,13.42c0,2.5,0,5,0,7.46v3.45c0,16.66,13.5,30.16,30.16,30.16h47.19c3.08,0,6.05-.46,8.85-1.32,3.58,1.51,7.51,2.34,11.64,2.35,.51,0,50.85,.08,71.22,.08h.02c17.57,0,35.57-7.1,49.37-19.48,4.73-4.24,8.81-8.94,12.21-14,2.86,4.27,6.17,8.29,9.93,11.99,14.29,14.05,33.24,21.81,53.35,21.84,13.44,.03,26.97,.03,40.48,.03,19.57,0,39.08-.02,58.22-.04,3.17,0,6.09-.17,8.67-.31,.96-.05,1.93-.11,2.9-.15,16.12-.72,28.82-14,28.82-30.13v-45.14c0-6.18-1.86-11.93-5.05-16.71Z"/>
        <path class="cls-6" d="M672.07,280.31v49.69h107.84v45.14c-3.43,.15-6.84,.43-10.25,.44-32.87,.03-65.74,.07-98.61,0-25.12-.05-45.65-20.09-45.75-45.11-.18-48.34-.22-96.67,.01-145.01,.11-24.16,19.59-45.11,43.63-45.61,36.7-.76,73.43-.2,110.9-.2v46.03h-107.5v48.42h68.69l-28.28,46.05"/>
        <path class="cls-6" d="M211.24,259.97c0-16.43-.2-32.87,.12-49.3,.1-5.04,.98-10.27,2.58-15.06,10.28-30.63,39.26-51.26,74.2-50.44,33.8,.8,70.74,32.05,69.69,69.88-.84,30.26-.05,60.57-.28,90.86-.05,6.01-.72,12.23-2.39,17.99-8.3,28.67-37.97,52.45-73.38,51.39-38.92-1.16-71.77-35.15-70.66-69.9,.48-15.13,.08-30.28,.08-45.43h.03Zm60.3,64.03c16.6,10.66,38.97-.19,40.2-19,.83-12.77,.16-25.63,.16-38.45-.96-.37-1.93-.73-2.89-1.1-12.49,19.52-24.98,39.03-37.47,58.55Zm-12.16-114.46c-3.22,14.25-2.28,29.44-3.18,44.21,1.3,.34,2.61,.68,3.91,1.03,12.33-19.48,24.65-38.96,36.99-58.46-14.92-9.21-34.04-3.07-37.72,13.23Z"/>
        <path class="cls-6" d="M177.32,330.93v44.06c-3.9,0-7.35,0-10.8,0-30.62,0-61.24,0-91.86,0-20.67,0-39.42-15.48-42.92-35.72-.88-5.06-1.46-10.23-1.47-15.36-.11-42.87-.16-85.73-.03-128.6,.07-21.82,8.43-38.74,29.71-47.25,3.48-1.39,7.41-2.34,11.13-2.36,33.52-.21,100.55-.18,100.55-.18l5.49,.04s-.08,28.69-.08,43.83c-4.87,0-9.6,0-14.34,0-26.11,0-52.21,.09-78.32-.06-5.62-.03-9.13,.9-9.1,7.79,.19,41.9,.22,83.8,0,125.7-.04,7.73,4.48,8.08,10.01,8.08,27.4,0,82.19,.02,82.19,.02h9.84Z"/>
        <path class="cls-6" d="M475.11,331.39c20.55,0,39.83-.37,59.08,.17,8.14,.23,10.42-2.49,10.26-10.42-.83-41.17-1.28-82.35-1.56-123.53-.04-6.39-2.34-8.39-8.49-8.3-18.66,.26-37.33,.09-56.87,.09v-43.84l6.4-.05s41.88,.35,62.8-.12c19.41-.44,41.08,19.43,41.22,40.57,.34,48.91,1.68,97.81,1.58,146.71-.05,25.34-23.26,42.55-43.41,42.54-20.58,0-71.18-.08-71.18-.08"/>
        <path class="cls-6" d="M373.69,181.7s12.02-21.81,18.44-31.36c1.65-2.45,5.64-4.57,8.63-4.65,15.46-.46,30.94,0,46.41-.32,8.29-.17,7.26,5.24,7.26,10.39,0,67.69,0,135.38,0,203.07,0,4.8,0,9.61,0,15.29h-47.19c0-3.55,0-7.26,0-10.97-.12-56.08-.24-112.16-.37-168.24-.03-12.7-.17-12.82-13.04-12.93-5.8-.05-11.6-.1-17.4-.22-.56-.01-2.74-.04-2.74-.04Z"/>
      </g>
    </g>
  </g>
</svg>