<svg xmlns="http://www.w3.org/2000/svg" xmlns:xlink="http://www.w3.org/1999/xlink" viewBox="0 0 2322.42 515.07" xmlns:v="https://vecta.io/nano"><g fill-rule="evenodd"><path d="M1271 330.66h-12.86c3.01-5.47 4.68-11.69 4.68-18.14V147.58a37.6 37.6 0 0 0-18.81-32.59l-47.6-27.47-95.24-55-47.61-27.48c-4.2-2.42-8.76-3.96-13.41-4.63l-.53-.09a33.29 33.29 0 0 0-2.24-.22c-.06 0-.12-.01-.18-.02a39.44 39.44 0 0 0-2.43-.08c-2.41 0-4.82.23-7.2.7-.02 0-.05 0-.07.01-.4.08-.8.18-1.2.28l-1.19.27c-.05.01-.1.03-.15.04a37.27 37.27 0 0 0-9 3.74s-.01 0-.02.01l-47.59 27.48-47.61 27.48a31.78 31.78 0 0 0-.98.59l-46.64 26.92-47.6 27.49c-8.02 4.62-13.91 11.93-16.8 20.42-.04.11-.07.23-.1.34a35.4 35.4 0 0 0-.61 2l-.06.27c-.18.7-.36 1.41-.5 2.13-.04.18-.06.36-.09.53-.12.63-.23 1.26-.32 1.9-.03.24-.04.48-.07.72-.07.58-.14 1.16-.17 1.75-.02.32-.02.65-.03.98-.02.51-.05 1.01-.05 1.52v47.08h-21.69v136h21.69v36.83c0 13.44 7.17 25.86 18.81 32.57l47.6 27.47 95.24 55 47.19 27.23c.14.09.28.18.42.26 5.82 3.36 12.31 5.04 18.8 5.04a37.61 37.61 0 0 0 18.81-5.04l47.61-27.5c11.63-6.72 18.8-19.13 18.8-32.57v-33.28l10-5.77 28.81 16.64c5.82 3.36 12.31 5.04 18.81 5.04s12.99-1.68 18.81-5.04l47.61-27.5c11.63-6.72 18.8-19.13 18.8-32.57 0-3.72-.56-7.36-1.6-10.83h9.79v-26z" fill="#fff"/><path d="M939.53 147.56v.02l47.61 27.49 47.6 27.48h.02v54.97l-47.62-27.49-47.61-27.48-47.61-27.5-47.62-27.47 47.62-27.5 47.61-27.48v-.02l47.61-27.47 47.62-27.5v54.97h-.02l-47.6 27.5-47.61 27.48z" fill="#21346e"/><path d="M939.53 257.54v-.02h-.02l-47.59-27.47v109.96l47.59 27.48h.02l47.61 27.5 47.62 27.47v54.98l-47.62-27.48-47.61-27.5-47.61-27.49-47.62-27.48V147.58l47.62 27.47 47.61 27.5 47.61 27.48 47.62 27.49v55l-47.62-27.5-47.61-27.48z" fill="#f26722"/><path d="M1177.6,175.07l-47.61,27.48-47.61,27.5-47.61,27.48v219.93l47.61-27.5v-54.99l47.61-27.48,47.61,27.5,47.61-27.5-47.61-27.5,47.61-27.48V147.58l-47.61,27.5Zm0,109.95l-47.61,27.5-47.61,27.5v-54.99l95.23-54.99v54.99Z" fill="#21346e"/><path d="M1225.21 147.56v.02l-47.61 27.49-47.62 27.48-47.61 27.5-47.61 27.47v-54.97l47.61-27.5 47.61-27.47-47.61-27.5-47.61-27.48V37.61l47.61 27.48 95.23 54.99 47.61 27.48z" fill="#f26722"/></g><path d="M2292.26 109.96h-45.12c-16.66 0-30.16 13.5-30.16 30.16v63.2h-37.27v-63.47c0-16.66-13.5-30.16-30.16-30.16h-44.8c-11.42 0-21.35 6.35-26.47 15.7-5.48-6.09-13.4-9.93-22.23-9.99l-5.49-.04h-9.66l-91.28.18c-7.2.05-14.86 1.61-22.13 4.51-16.13 6.44-28.53 16.66-36.79 29.97-3.25-5.69-7.22-10.89-11.92-15.51-14.2-13.99-33.66-21.47-56.28-21.65l-46.83-.19-44.56.21c-20.34.2-38.06 6.45-51.68 18.13-3.71-12.45-15.24-21.53-28.9-21.53-11.15 0-22.43-.05-33.33-.1-25.61-.12-52.1-.24-78.19.31-21.39.44-40.69 10.28-54.09 25.54-13.1-13.5-30.61-21.24-49.49-21.83l-53.17-.82c-17.82 0-35.31.26-53.08.79-38.43 1.13-70.07 32.82-70.54 70.65l-1.42 147.92-.29 34.94c-.03 3.65.35 6.76.63 9.03l.2 1.71a30.17 30.17 0 0 0 30.02 27.3h46.52c16.66 0 30.16-13.5 30.16-30.16v-60.84l38.09 74.97a30.16 30.16 0 0 0 26.56 16.5l45.49.33c9.88 0 19.09-4.84 24.71-12.88 12.42 8.35 27.06 12.87 42.38 12.9l40.48.03 58.22-.04c3.17 0 6.09-.17 8.67-.31l2.9-.15a30.05 30.05 0 0 0 14.46-4.45c4.53 2.71 9.82 4.28 15.48 4.28h46.47c16.66 0 30.16-13.5 30.16-30.16v-30.45h36.71v30.54c0 16.66 13.5 30.16 30.16 30.16h46.81c13.77 0 25.38-9.24 28.99-21.85 13.54 13.49 32.21 21.81 52.21 21.81h31.26 71.39c10.04 0 18.93-4.91 24.41-12.46 5.49 7.45 14.33 12.29 24.29 12.29h45.29c16.66 0 30.16-13.5 30.16-30.16v-63.53h36.74v63.61c0 16.66 13.5 30.16 30.16 30.16h45.16c16.66 0 30.16-13.5 30.16-30.16V140.12c0-16.66-13.5-30.16-30.16-30.16z" fill="#fff"/><g fill="#21346e"><path d="M2056.05 330.93v44.06h-10.8-91.86c-20.67 0-39.42-15.48-42.92-35.72-.88-5.06-1.46-10.23-1.47-15.36l-.03-128.6c.07-21.82 8.43-38.74 29.71-47.25 3.48-1.39 7.41-2.34 11.13-2.36l100.55-.18 5.49.04-.08 43.83h-14.34c-26.11 0-52.21.09-78.32-.06-5.62-.03-9.13.9-9.1 7.79v125.7c-.04 7.73 4.48 8.08 10.01 8.08l82.19.02h9.84zm-669.33-39.76c-2.84-5.98-6.1-8.82-13.11-8.49-12.82.61-25.69.17-39.32.17v91.91h-46.52c-.25-2.67-.71-5.14-.69-7.61l1.71-182.75c.26-21.16 18.55-40.2 41.26-40.87 34.79-1.02 69.65-1.05 104.43.03 23.56.73 40.99 20.18 41.58 43.9.41 16.43.37 32.89 0 49.33-.49 22.3-13.48 38.14-35.19 43.72l-11.1 2.93 44.8 92.12c-15 0-45.16-.33-45.16-.33m-95.59-139.04h96.02v-47.88h-96.02v47.88zm770.93-96.34h44.8v93.63h97.59v-93.36h45.12V374.9h-45.16v-93.77h-97.06v93.69h-45.29V139.85z"/><use xlink:href="#B"/><path d="M1872.19 363.99l-.92-74.35-.33-98.58c-.39-29.66-18.91-47.79-48.68-48.03-30.28-.24-60.57-.28-90.85.02-29.68.3-47.66 19.03-47.91 48.7l-1.61 142.95-.02 40.24h46.47v-60.62h97.03v60.7h46.81v-11.04zm-47.29-96.84h-96.86v-79.52h96.86v79.52z"/></g><path d="M805.02 313.29V202.31c3.15-4.77 5-10.48 5-16.62v-46.03c0-16.66-13.5-30.16-30.16-30.16-11.15 0-22.43-.05-33.33-.1-25.61-.12-52.1-.24-78.19.31-26.67.55-50.11 15.71-62.89 37.8a77.86 77.86 0 0 0-9.66-11.37c-14.08-13.67-32.18-21.29-49.71-20.89-20.21.45-61.46.11-61.87.11h-.49l-6.4.05c-4.78.04-9.29 1.19-13.29 3.2-4.39-2-9.82-3.4-16.47-3.4l-1.02.01-13.55.12c-2.37 0-4.73 0-7.1-.01-2.42 0-4.84-.01-7.26-.01l-18.76.23c-12.81.38-25.67 7.44-32.75 17.97-2.31 3.44-5.13 8.04-7.91 12.74-4.24-4.28-8.87-8.21-13.87-11.75-18.04-12.76-39.65-19.5-62.49-19.5l-2.73.03c-25.82.61-52.72 13.07-71.98 33.34l-.84.9v-3.64c.04-16.61-13.35-30.13-29.96-30.24l-5.49-.04h-9.66l-91.28.18c-7.2.05-14.86 1.61-22.13 4.51-31.3 12.51-48.59 39.2-48.7 75.17l.03 128.77c.02 6.41.64 13.09 1.92 20.43 6 34.62 37.23 60.73 72.65 60.73h31.26 71.39c16.66 0 30.16-13.5 30.16-30.16v-3.22a105.69 105.69 0 0 0 13.91 12.51c18.51 13.89 40.47 21.23 63.51 21.23a111.7 111.7 0 0 0 3.17-.05c27.15-.81 53.75-13 72.98-33.45 6.4-6.81 11.76-14.26 16-22.23l.03 13.42v7.46 3.45c0 16.66 13.5 30.16 30.16 30.16h47.19c3.08 0 6.05-.46 8.85-1.32 3.58 1.51 7.51 2.34 11.64 2.35l71.22.08h.02c17.57 0 35.57-7.1 49.37-19.48 4.73-4.24 8.81-8.94 12.21-14 2.86 4.27 6.17 8.29 9.93 11.99 14.29 14.05 33.24 21.81 53.35 21.84l40.48.03 58.22-.04c3.17 0 6.09-.17 8.67-.31l2.9-.15c16.12-.72 28.82-14 28.82-30.13v-45.14c0-6.18-1.86-11.93-5.05-16.71z" fill="#fff"/><g fill="#f26722"><use xlink:href="#B" x="-870.69"/><path d="M211.24 259.97l.12-49.3c.1-5.04.98-10.27 2.58-15.06 10.28-30.63 39.26-51.26 74.2-50.44 33.8.8 70.74 32.05 69.69 69.88-.84 30.26-.05 60.57-.28 90.86-.05 6.01-.72 12.23-2.39 17.99-8.3 28.67-37.97 52.45-73.38 51.39-38.92-1.16-71.77-35.15-70.66-69.9.48-15.13.08-30.28.08-45.43h.03zm60.3 64.03c16.6 10.66 38.97-.19 40.2-19 .83-12.77.16-25.63.16-38.45l-2.89-1.1L271.54 324zm-12.16-114.46c-3.22 14.25-2.28 29.44-3.18 44.21l3.91 1.03 36.99-58.46c-14.92-9.21-34.04-3.07-37.72 13.23zm-82.06 121.39v44.06h-10.8-91.86c-20.67 0-39.42-15.48-42.92-35.72-.88-5.06-1.46-10.23-1.47-15.36l-.03-128.6c.07-21.82 8.43-38.74 29.71-47.25 3.48-1.39 7.41-2.34 11.13-2.36l100.55-.18 5.49.04-.08 43.83H162.7c-26.11 0-52.21.09-78.32-.06-5.62-.03-9.13.9-9.1 7.79v125.7c-.04 7.73 4.48 8.08 10.01 8.08l82.19.02h9.84zm297.79.46l59.08.17c8.14.23 10.42-2.49 10.26-10.42l-1.56-123.53c-.04-6.39-2.34-8.39-8.49-8.3l-56.87.09v-43.84l6.4-.05 62.8-.12c19.41-.44 41.08 19.43 41.22 40.57l1.58 146.71c-.05 25.34-23.26 42.55-43.41 42.54-20.58 0-71.18-.08-71.18-.08M373.69 181.7s12.02-21.81 18.44-31.36c1.65-2.45 5.64-4.57 8.63-4.65 15.46-.46 30.94 0 46.41-.32 8.29-.17 7.26 5.24 7.26 10.39v203.07 15.29h-47.19v-10.97l-.37-168.24c-.03-12.7-.17-12.82-13.04-12.93l-17.4-.22-2.74-.04z"/></g><defs ><path id="B" d="M1542.76 280.31V330h107.84v45.14c-3.43.15-6.84.43-10.25.44h-98.61c-25.12-.05-45.65-20.09-45.75-45.11l.01-145.01c.11-24.16 19.59-45.11 43.63-45.61 36.7-.76 73.43-.2 110.9-.2v46.03h-107.5v48.42h68.69l-28.28 46.05"/></defs></svg>